<svg xmlns="http://www.w3.org/2000/svg" width="192" height="192" viewBox="0 0 192 192">
  <defs>
    <linearGradient id="bg" x1="0%" y1="0%" x2="100%" y2="100%">
      <stop offset="0%" style="stop-color:#3B82F6"/>
      <stop offset="100%" style="stop-color:#8B5CF6"/>
    </linearGradient>
  </defs>
  <rect width="192" height="192" rx="40" fill="url(#bg)"/>
  <path d="M96 50c-15 0-28 8-35 20-3 5-4 11-4 17 0 18 14 32 32 32 8 0 14-6 14-14s-6-14-14-14c-2 0-4 2-4 4s2 4 4 4c3 0 6 3 6 6s-3 6-6 6c-13 0-24-11-24-24 0-4 1-8 3-12 5-9 15-15 26-15 17 0 30 13 30 30 0 20-12 38-30 46-3 1-5 5-3 8 1 3 5 5 8 3 22-10 37-32 37-57 0-22-18-40-40-40z" fill="white" opacity="0.95"/>
  <circle cx="96" cy="80" r="6" fill="white"/>
</svg>
